<?xml version="1.0" encoding="UTF-8"?>
<svg version="1.1" xmlns="http://www.w3.org/2000/svg" width="16" height="16">
<path d="M0 0 C0.33 0 0.66 0 1 0 C1 1.65 1 3.3 1 5 C0.67 5 0.34 5 0 5 C0 3.35 0 1.7 0 0 Z " fill="#FF6F61" transform="translate(11,5)"/>
<path d="M0 0 C0.66 0 1.32 0 2 0 C2 0.66 2 1.32 2 2 C1.34 2 0.68 2 0 2 C0 1.34 0 0.68 0 0 Z " fill="#FF9388" transform="translate(4,9)"/>
<path d="M0 0 C0.66 0 1.32 0 2 0 C2 0.66 2 1.32 2 2 C1.34 2 0.68 2 0 2 C0 1.34 0 0.68 0 0 Z " fill="#FF9388" transform="translate(4,4)"/>
<path d="" fill="#FF6F61" transform="translate(0,0)"/>
<path d="" fill="#FF6F61" transform="translate(0,0)"/>
<path d="" fill="#FF6F61" transform="translate(0,0)"/>
<path d="" fill="#FF6F61" transform="translate(0,0)"/>
</svg>
